<svg xmlns="http://www.w3.org/2000/svg" width="1024" height="1024" viewBox="-51.5 -51.5 1127.0 1127.0">
  <g fill="none" stroke="black" stroke-width="45" stroke-linecap="round" stroke-linejoin="round">
    <path d="M 855.326,55.244 C 861.505,91.029 863.099,118.05 861.288,149.354 L 856.463,184.446" data-line="nan"  stroke-width="45.0"/>
    <path d="M 611.981,220.104 C 597.649,200.994 587.857,182.891 581.346,165.407 C 576.949,145.044 575.473,122.816 576.47,100.432 Q 580.44,77.409 588.604,46.993" data-line="nan"  stroke-width="45.0"/>
    <path d="M 611.981,220.104 C 561.383,303.824 547.747,324.275 531.649,345.886 C 517.469,362.412 502.022,377.498 486.078,390.475 L 465.285,404.509" data-line="nan"  stroke-width="45.0"/>
    <path d="M 367.058,460.99 Q 323.594,488.188 285.058,515.407" data-line="nan"  stroke-width="45.0"/>
    <path d="M 530.363,1020.0 C 527.496,1002.361 525.348,994.047 519.248,980.376 C 513.182,971.324 505.542,962.87 496.7,955.766 C 487.427,950.444 473.961,945.803 460.558,944.004 L 371.774,945.715" data-line="nan"  stroke-width="45.0"/>
    <path d="M 343.17,662.554 C 366.865,665.486 389.201,672.074 402.712,677.98 C 411.865,682.943 429.765,695.548 438.701,703.721 C 446.715,712.534 459.063,730.648 463.46,739.502 C 468.408,753.094 470.702,762.151 472.787,775.526 C 473.338,784.543 472.865,798.202 468.962,820.592 C 461.029,843.287 451.706,861.435 439.731,879.272 Q 424.454,897.168 371.774,945.715" data-line="nan"  stroke-width="45.0"/>
    <path d="M 957.158,333.595 C 925.033,297.158 914.479,282.858 911.138,276.005 C 909.164,269.509 907.628,251.697 905.25,240.217 C 901.487,230.57 896.146,221.782 888.987,212.849 Q 880.777,204.544 856.463,184.446" data-line="nan"  stroke-width="45.0"/>
    <path d="M 795.613,428.893 C 792.649,438.343 791.684,446.526 792.687,506.409 C 791.8,533.265 788.649,560.233 782.823,587.134 C 773.827,614.304 761.654,641.039 748.897,663.309 L 720.704,707.666" data-line="nan"  stroke-width="45.0"/>
    <path d="M 662.2,369.599 C 669.907,389.686 680.511,407.744 693.213,423.367 C 708.723,437.796 726.41,450.365 744.567,459.84 Q 762.416,466.647 791.809,475.367" data-line="nan"  stroke-width="45.0"/>
    <path d="M 191.346,1019.959 C 169.004,1018.876 146.591,1014.734 128.665,1007.938 C 119.44,1002.792 110.47,996.41 97.863,983.95 C 90.979,974.832 85.585,965.881 77.842,948.071 L 66.842,914.019" data-line="nan"  stroke-width="45.0"/>
    <path d="M 856.463,184.446 L 786.045,155.623" data-line="1.0"  stroke-width="45.0"/>
    <path d="M 799.073,128.774 L 832.817,78.876" data-line="2.0"  stroke-width="45.0"/>
    <path d="M 556.744,4.0 L 588.604,46.993" data-line="3.0"  stroke-width="45.0"/>
    <path d="M 160.621,931.634 L 66.842,914.019" data-line="6.0"  stroke-width="45.0"/>
    <path d="M 530.363,1020.0 L 191.346,1019.959" data-line="7.0"  stroke-width="45.0"/>
    <path d="M 699.798,153.638 L 588.604,46.993" data-line="10.0"  stroke-width="45.0"/>
    <path d="M 699.7980000354688,153.63799993796783 A 46.04143218580547,46.04143218580547 0 0,0 704.815000027059,156.1149999356073" data-line="11.0"  stroke-width="45.0"/>
    <path d="M 704.8150000000386,156.1149999998848 A 35.73065085926769,35.73065085926769 0 0,0 710.5960000000172,157.52699999989096" data-line="12.0"  stroke-width="45.0"/>
    <path d="M 710.596,157.527 L 786.045,155.623" data-line="13.0"  stroke-width="45.0"/>
    <path d="M 957.158,333.595 C 938.6067279439371,370.5623001256003 926.9450070211814,392.7122023249207 893.547,417.835" data-line="15.0"  stroke-width="45.0"/>
    <path d="M 795.613,428.893 L 796.968,426.386" data-line="17.0"  stroke-width="45.0"/>
    <path d="M 796.968,426.386 L 798.392,424.271" data-line="18.0"  stroke-width="45.0"/>
    <path d="M 798.3920000016429,424.27100000122994 A 33.730645830458,33.730645830458 0 0,1 801.8970000013643,420.2860000014051" data-line="19.0"  stroke-width="45.0"/>
    <path d="M 801.8970000008622,420.2860000008978 A 30.852432340331223,30.852432340331223 0 0,1 806.0320000006769,416.94900000100483" data-line="20.0"  stroke-width="45.0"/>
    <path d="M 806.032,416.949 L 808.495,415.493" data-line="21.0"  stroke-width="45.0"/>
    <path d="M 808.495,415.493 C 833.6002432369003,402.6295320643169 858.1201221724858,413.9368669907369 893.547,417.835" data-line="22.0"  stroke-width="45.0"/>
    <path d="M 718.002,716.316 L 721.972,945.785" data-line="24.0"  stroke-width="45.0"/>
    <path d="M 718.002,716.316 L 719.021,711.951" data-line="25.0"  stroke-width="45.0"/>
    <path d="M 719.021,711.951 L 720.704,707.666" data-line="26.0"  stroke-width="45.0"/>
    <path d="M 776.077,951.192 L 721.972,945.785" data-line="28.0"  stroke-width="45.0"/>
    <path d="M 776.077,951.192 L 780.644,953.406" data-line="29.0"  stroke-width="45.0"/>
    <path d="M 780.644,953.406 L 785.284,956.239" data-line="30.0"  stroke-width="45.0"/>
    <path d="M 785.284,956.239 L 790.03,959.783" data-line="31.0"  stroke-width="45.0"/>
    <path d="M 790.03,959.783 L 794.551,963.861" data-line="32.0"  stroke-width="45.0"/>
    <path d="M 794.551,963.861 L 798.626,968.33" data-line="33.0"  stroke-width="45.0"/>
    <path d="M 798.9345454896672,968.1257292899088 A 137.87601697658536,137.87601697658536 0 0,1 819.7012831708676,1020.0125790791236" data-line="34.0"  stroke-width="45.0"/>
    <path d="M 819.839,1019.988 L 635.357,1019.969" data-line="35.0"  stroke-width="45.0"/>
    <path d="M 563.433,649.112 C 581.1218812449516,767.848425169241 591.9356691375023,890.3028148210741 635.357,1019.969" data-line="36.0"  stroke-width="45.0"/>
    <path d="M 465.285,404.509 L 367.058,460.99" data-line="36.0"  stroke-width="45.0"/>
    <path d="M 834.028,9.32 L 855.326,55.244" data-line="37.0"  stroke-width="45.0"/>
    <path d="M 832.817,78.876 L 855.326,55.244" data-line="56.0"  stroke-width="45.0"/>
    <path d="M 799.073,128.774 L 786.045,155.623" data-line="58.0"  stroke-width="45.0"/>
    <path d="M 286.06580399568475,516.9869920265702 A 317.61074077485716,317.61074077485716 0 0,0 140.52857721518058,813.1607630595996" data-line="59.0"  stroke-width="45.0"/>
    <path d="M 140.771,813.139 L 160.621,931.634" data-line="60.0"  stroke-width="45.0"/>
  </g>
</svg>