<svg xmlns="http://www.w3.org/2000/svg" width="1024" height="1024" viewBox="-51.5 -51.5 1127.0 1127.0">
  <g fill="none" stroke="black" stroke-width="45" stroke-linecap="round" stroke-linejoin="round">
    <path d="M 304.575,502.752 C 414.988,670.872 419.699,679.175 423.305,687.595 L 427.594,704.746" data-line="nan"  stroke-width="45.0"/>
    <path d="M 450.342,887.74 L 459.818,960.057" data-line="nan"  stroke-width="45.0"/>
    <path d="M 256.089,672.456 C 240.764,737.67 234.932,759.018 227.459,780.165 L 209.096,822.713" data-line="nan"  stroke-width="45.0"/>
    <path d="M 619.4,475.082 C 610.268,461.019 599.191,450.166 510.989,386.961 Q 504.607,378.824 499.745,365.442" data-line="nan"  stroke-width="45.0"/>
    <path d="M 477.1,288.314 L 461.442,234.592" data-line="nan"  stroke-width="45.0"/>
    <path d="M 600.298,536.958 C 583.107,539.96 571.637,540.743 558.992,539.239 C 546.224,534.641 414.473,456.032 406.413,449.064 Q 403.0,444.929 395.74,431.928" data-line="nan"  stroke-width="45.0"/>
    <path d="M 359.177,330.26 L 348.565,297.73" data-line="nan"  stroke-width="45.0"/>
    <path d="M 688.264,1019.543 C 696.208,1018.17 701.206,1015.983 750.48,987.292 L 824.109,947.367" data-line="nan"  stroke-width="45.0"/>
    <path d="M 824.109,947.367 C 884.09,1013.728 886.199,1015.688 891.814,1018.401 L 898.438,1019.38" data-line="nan"  stroke-width="45.0"/>
    <path d="M 459.818,960.057 C 461.051,977.154 459.765,985.906 456.361,994.945 C 453.839,999.353 447.215,1007.316 438.968,1013.513 C 434.547,1015.785 425.721,1018.688 412.759,1020.0 C 400.027,1018.583 391.62,1015.743 383.129,1010.82 C 375.231,1003.66 368.883,995.073 363.537,982.353 L 354.468,939.9" data-line="nan"  stroke-width="45.0"/>
    <path d="M 316.073,756.906 C 313.15,747.936 304.956,735.072 206.686,609.212 Q 172.528,566.91 142.334,527.009" data-line="nan"  stroke-width="45.0"/>
    <path d="M 139.856,980.258 C 133.777,993.282 127.972,1002.056 119.86,1009.944 C 110.899,1015.441 102.143,1018.607 89.403,1019.96 C 76.641,1017.773 63.739,1011.791 55.384,1005.187 C 48.802,996.927 45.053,988.228 43.684,979.75 Q 45.174,967.491 58.918,925.4" data-line="nan"  stroke-width="45.0"/>
    <path d="M 117.421,750.871 C 123.448,729.353 127.086,707.949 140.359,524.383" data-line="nan"  stroke-width="45.0"/>
    <path d="M 461.442,234.592 C 455.037,216.072 447.339,201.228 437.281,188.701 C 424.695,178.097 410.872,170.611 395.097,165.649 C 377.594,163.741 361.259,165.559 349.297,168.888 C 336.484,174.656 324.176,182.683 311.636,193.774 C 303.96,202.277 297.477,210.942 249.462,282.93" data-line="nan"  stroke-width="45.0"/>
    <circle cx="549.6709968895449" cy="96.07559659887765" r="91.72149504619638" data-line="0.0"  stroke-width="45.0"/>
    <path d="M 730.475,475.019 L 619.4,475.082" data-line="4.0"  stroke-width="45.0"/>
    <path d="M 715.78,756.352 L 730.475,475.019" data-line="5.0"  stroke-width="45.0"/>
    <path d="M 715.78,756.352 L 617.036,756.294" data-line="6.0"  stroke-width="45.0"/>
    <path d="M 617.036,756.294 L 602.753,536.529" data-line="8.0"  stroke-width="45.0"/>
    <path d="M 619.0850786657726,475.210935487551 A 49.62428400896068,49.62428400896068 0 0,1 602.3796534358506,534.1235089815962" data-line="9.0"  stroke-width="45.0"/>
    <path d="M 381.423,392.823 L 304.575,502.752" data-line="13.0"  stroke-width="45.0"/>
    <path d="M 665.91,756.905 L 665.838,1019.557" data-line="14.0"  stroke-width="45.0"/>
    <path d="M 427.594,704.746 L 450.342,887.74" data-line="14.0"  stroke-width="45.0"/>
    <path d="M 209.096,822.713 L 139.856,980.258" data-line="17.0"  stroke-width="45.0"/>
    <path d="M 730.319,511.233 L 822.872,511.217" data-line="17.0"  stroke-width="45.0"/>
    <path d="M 499.745,365.442 L 477.1,288.314" data-line="19.0"  stroke-width="45.0"/>
    <path d="M 395.74,431.928 L 359.177,330.26" data-line="22.0"  stroke-width="45.0"/>
    <path d="M 561.506,1019.495 L 688.264,1019.543" data-line="24.0"  stroke-width="45.0"/>
    <path d="M 898.438,1019.38 L 980.316,1019.412" data-line="27.0"  stroke-width="45.0"/>
    <path d="M 354.468,939.9 L 316.073,756.906" data-line="29.0"  stroke-width="45.0"/>
    <path d="M 58.918,925.4 L 117.421,750.871" data-line="32.0"  stroke-width="45.0"/>
    <path d="M 725.214,932.386 L 761.951,880.021" data-line="34.0"  stroke-width="45.0"/>
    <path d="M 568.672,882.146 L 606.781,935.845" data-line="35.0"  stroke-width="45.0"/>
    <path d="M 249.462,282.93 L 164.552,410.714" data-line="41.0"  stroke-width="45.0"/>
    <path d="M 164.3616410603933,410.5910034943914 A 152.72547316405905,152.72547316405905 0 0,0 143.5789836050777,526.7312397297386" data-line="42.0"  stroke-width="45.0"/>
  </g>
</svg>