<svg xmlns="http://www.w3.org/2000/svg" width="1024" height="1024" viewBox="-51.5 -51.5 1127.0 1127.0">
  <g fill="none" stroke="black" stroke-width="45" stroke-linecap="round" stroke-linejoin="round">
    <path d="M 250.825,708.371 C 308.435,694.473 361.805,678.097 412.88,658.72 C 460.084,636.955 511.013,609.23 534.022,595.099 C 556.997,579.775 578.47,564.084 596.525,549.693 C 617.783,531.168 635.774,514.191 652.913,496.457 C 668.234,479.142 684.142,459.543 698.757,439.891 C 725.907,398.405 739.03,375.532 750.959,352.696 C 772.025,305.165 781.613,279.699 790.744,252.076 C 798.575,224.508 804.29,200.738 813.018,152.716" data-line="nan"  stroke-width="45.0"/>
    <path d="M 150.493,60.74 L 150.468,963.26" data-line="0.0"  stroke-width="45.0"/>
    <path d="M 4.0,819.631 L 1020.0,819.224" data-line="1.0"  stroke-width="45.0"/>
    <path d="M 893.821,61.649 L 895.969,818.584" data-line="2.0"  stroke-width="45.0"/>
  </g>
</svg>