<svg xmlns="http://www.w3.org/2000/svg" width="1024" height="1024" viewBox="-51.5 -51.5 1127.0 1127.0">
  <g fill="none" stroke="black" stroke-width="45" stroke-linecap="round" stroke-linejoin="round">
    <path d="M 440.953,838.738 C 438.472,846.176 437.326,854.089 437.596,860.346 C 438.961,867.081 441.955,874.963 445.976,881.803 C 449.582,886.249 455.898,892.045 489.091,911.363 C 535.223,935.65 553.929,942.83 576.328,947.907 C 596.059,949.277 613.329,948.018 627.487,944.714 C 645.761,937.971 666.303,927.526 684.677,916.059 Q 706.282,900.219 729.826,880.682" data-line="nan"  stroke-width="45.0"/>
    <path d="M 47.578,985.599 C 39.06,984.851 29.446,982.139 19.255,976.306 C 12.624,969.821 8.749,964.193 5.412,955.146 Q 4.083,946.397 4.077,931.225" data-line="nan"  stroke-width="45.0"/>
    <path d="M 4.689,855.525 Q 6.061,831.915 8.829,810.417" data-line="nan"  stroke-width="45.0"/>
    <path d="M 729.826,880.682 C 747.49,864.478 768.537,843.189 787.848,821.955 C 806.181,800.166 831.327,768.419 853.224,739.207 C 874.555,708.875 892.824,680.956 923.096,629.957 C 947.182,583.425 979.504,507.633 996.123,460.571" data-line="nan"  stroke-width="45.0"/>
    <path d="M 996.123,460.571 C 1007.073,422.813 1014.7,388.98 1019.099,358.927 C 1019.932,335.284 1017.359,309.387 1011.17,284.485 C 1000.889,258.532 988.719,236.436 982.281,227.422 C 974.653,218.641 965.457,209.88 955.155,201.544 C 924.539,181.876 889.454,160.79 879.378,155.189 C 872.85,152.549 864.702,150.391 855.726,149.462 C 847.116,149.924 839.771,151.746 828.432,157.571 C 822.625,162.219 817.367,169.118 812.552,177.767" data-line="nan"  stroke-width="45.0"/>
    <path d="M 767.538,272.998 C 762.619,287.207 761.595,299.922 762.427,306.225 C 764.807,314.583 767.767,321.385 771.961,328.052 C 778.912,335.824 786.926,342.186 833.683,369.361 C 848.205,379.894 855.853,387.828 862.67,397.367 C 867.844,407.77 872.098,420.372 873.296,431.728 C 872.652,442.647 869.766,458.028 865.219,473.275 C 857.517,493.892 846.836,518.627 823.823,564.376" data-line="nan"  stroke-width="45.0"/>
    <path d="M 727.369,711.189 C 712.271,728.539 699.212,739.675 687.899,746.39 C 672.524,751.443 663.705,752.413 655.977,752.252 C 643.258,749.79 634.862,746.686 583.544,722.868 C 574.708,720.327 564.405,719.241 551.602,720.945 C 538.288,726.343 524.674,736.292 513.962,747.443" data-line="nan"  stroke-width="45.0"/>
    <path d="M 450.754,823.787 Q 442.961,833.941 440.953,838.738" data-line="nan"  stroke-width="45.0"/>
    <circle cx="370.3417755702043" cy="259.2396533891431" r="221.3699538910236" data-line="0.0"  stroke-width="45.0"/>
    <path d="M 423.839,985.516 L 47.578,985.599" data-line="6.0"  stroke-width="45.0"/>
    <path d="M 823.823,564.376 L 727.369,711.189" data-line="7.0"  stroke-width="45.0"/>
    <path d="M 4.077,931.225 L 4.689,855.525" data-line="8.0"  stroke-width="45.0"/>
    <path d="M 9.131629199026634,810.4627560754886 A 310.7299886278873,310.7299886278873 0 0,1 312.4655807069804,546.2102147602939" data-line="9.0"  stroke-width="45.0"/>
    <path d="M 312.453,545.209 L 450.802,547.757" data-line="10.0"  stroke-width="45.0"/>
    <path d="M 450.73386722066476,548.3901383622429 A 341.85913102028377,341.85913102028377 0 0,1 646.2208063812178,637.2607422554463" data-line="11.0"  stroke-width="45.0"/>
    <path d="M 812.552,177.767 L 767.538,272.998" data-line="12.0"  stroke-width="45.0"/>
    <path d="M 513.962,747.443 L 450.754,823.787" data-line="15.0"  stroke-width="45.0"/>
  </g>
</svg>