<svg xmlns="http://www.w3.org/2000/svg" width="1024" height="1024" viewBox="-51.5 -51.5 1127.0 1127.0">
  <g fill="none" stroke="black" stroke-width="45" stroke-linecap="round" stroke-linejoin="round">
    <path d="M 682.619,865.975 C 704.957,861.556 717.747,856.946 731.498,848.542 C 740.887,839.24 748.619,827.24 752.223,818.441 C 754.383,810.516 755.345,802.526 755.26,792.955 C 752.416,779.786 748.265,771.031 741.758,762.539 C 735.39,756.803 726.136,750.891 707.114,742.94 C 656.504,728.446 643.432,722.982 632.397,716.249 C 622.636,707.026 615.986,696.557 612.072,685.654 C 610.804,672.961 612.602,660.828 618.611,646.033 C 626.38,635.203 636.944,625.659 648.987,618.665 C 662.052,614.056 682.425,610.865 692.827,612.019" data-line="nan"  stroke-width="45.0"/>
    <path d="M 739.911,236.48 C 718.607,234.77 710.075,232.891 701.583,229.955 C 688.421,222.474 676.937,211.638 668.798,198.489 C 664.626,185.706 663.068,173.148 662.897,143.512" data-line="nan"  stroke-width="45.0"/>
    <path d="M 909.639,968.202 C 908.64,983.044 906.108,991.981 901.014,1000.909 C 892.346,1009.372 882.145,1015.24 870.535,1018.675 Q 860.265,1019.889 839.075,1019.99" data-line="nan"  stroke-width="45.0"/>
    <path d="M 897.381,234.123 L 668.406,5.138" data-line="0.0"  stroke-width="45.0"/>
    <path d="M 902.272,237.215 L 739.911,236.48" data-line="1.0"  stroke-width="45.0"/>
    <path d="M 902.272,237.215 L 909.639,968.202" data-line="2.0"  stroke-width="45.0"/>
    <path d="M 262.674,301.879 L 488.64,301.667" data-line="6.0"  stroke-width="45.0"/>
    <path d="M 263.653,421.094 L 759.866,420.688" data-line="7.0"  stroke-width="45.0"/>
    <path d="M 263.898,539.439 L 550.551,538.916" data-line="8.0"  stroke-width="45.0"/>
    <path d="M 682.425,610.865 L 682.642,576.024" data-line="9.0"  stroke-width="45.0"/>
    <path d="M 610.9501669896587,823.1885293745867 A 79.61490832137748,79.61490832137748 0 0,0 682.6058514643113,865.2513236977204" data-line="11.0"  stroke-width="45.0"/>
    <path d="M 682.488,903.7 L 682.619,865.975" data-line="12.0"  stroke-width="45.0"/>
    <path d="M 692.8167504554718,612.1058413492285 A 71.23505298744082,71.23505298744082 0 0,1 751.9312388924188,659.9801387405813" data-line="13.0"  stroke-width="45.0"/>
    <path d="M 662.897,143.512 L 662.862,4.96" data-line="15.0"  stroke-width="45.0"/>
    <path d="M 839.075,1019.99 L 169.486,1019.625" data-line="17.0"  stroke-width="45.0"/>
    <path d="M 169.4065321378148,1019.0907113620941 A 49.266967394571225,49.266967394571225 0 0,1 115.4654012284746,954.6439516501728" data-line="18.0"  stroke-width="45.0"/>
    <path d="M 113.775,954.075 L 113.483,55.638" data-line="19.0"  stroke-width="45.0"/>
    <path d="M 113.483,55.638 C 109.52103179649156,27.824638784881493 136.2151861197378,-5.78724589855055 186.147,4.216" data-line="20.0"  stroke-width="45.0"/>
    <path d="M 186.147,4.216 L 662.862,4.96" data-line="21.0"  stroke-width="45.0"/>
  </g>
</svg>