<svg xmlns="http://www.w3.org/2000/svg" width="1024" height="1024" viewBox="-51.5 -51.5 1127.0 1127.0">
  <g fill="none" stroke="black" stroke-width="45" stroke-linecap="round" stroke-linejoin="round">
    <path d="M 12.39,26.04 C 6.74,35.26 3.11,44.24 0.97,53.33 Q 0.11,62.4 0.0,312.38" data-line="nan"  stroke-width="45.0"/>
    <path d="M 19.97,17.38 C 33.32,7.49 42.46,3.32 49.83,1.22 Q 61.98,0.0 103.7,0.04" data-line="nan"  stroke-width="45.0"/>
    <path d="M 286.61,0.23 C 298.46,1.61 311.47,5.43 323.58,11.27 C 332.94,17.33 349.38,30.99 405.03,84.84" data-line="nan"  stroke-width="45.0"/>
    <path d="M 968.05,835.34 C 952.36,825.42 936.91,818.21 920.05,812.96 C 902.62,810.16 892.6,810.31 883.16,812.58 C 859.43,825.22 840.79,832.26 824.98,835.63 C 808.5,836.85 788.19,835.52 768.5,831.01 C 755.67,826.08 731.79,813.64 723.48,810.91 C 711.87,810.07 694.86,812.45 674.34,818.77 C 657.71,826.77 641.3,837.63 626.26,850.98 C 614.45,864.8 603.92,881.55 596.0,899.71 L 591.06,917.35" data-line="nan"  stroke-width="45.0"/>
    <path d="M 0.24,741.7 C 0.58,750.97 2.12,759.84 7.29,773.33 C 16.73,787.55 25.12,796.14 33.81,802.98 C 46.29,809.95 64.0,815.44 75.91,816.82 L 108.33,816.96" data-line="nan"  stroke-width="45.0"/>
    <path d="M 845.29,121.71 C 859.0,122.7 876.95,127.45 889.52,134.18 C 901.14,143.67 910.38,155.08 916.94,167.99 Q 920.27,180.23 921.32,196.9" data-line="nan"  stroke-width="45.0"/>
    <path d="M 921.58,272.52 L 921.58,309.62" data-line="nan"  stroke-width="45.0"/>
    <path d="M 591.06,917.35 C 588.76,933.06 588.27,949.66 588.46,986.46 C 590.63,997.95 596.16,1008.56 603.56,1016.19 Q 613.86,1021.69 624.08,1023.78" data-line="nan"  stroke-width="45.0"/>
    <path d="M 982.64,1023.9 Q 993.1,1023.05 1003.12,1019.69" data-line="nan"  stroke-width="45.0"/>
    <path d="M 1003.12,1019.69 C 1008.78,1016.14 1013.38,1012.04 1019.2,1003.86 Q 1022.96,993.71 1023.98,981.02" data-line="nan"  stroke-width="45.0"/>
    <path d="M 1023.75,937.76 C 1022.07,922.5 1018.67,907.51 1013.66,893.04 C 1007.11,879.31 999.36,867.04 989.24,854.46 Q 979.03,844.27 968.05,835.34" data-line="nan"  stroke-width="45.0"/>
    <path d="M 913.3316125446734,304.3108480478171 A 137.46447319427057,137.46447319427057 0 0,0 793.0535336648053,241.46635093431425" data-line="0.0"  stroke-width="45.0"/>
    <path d="M 2.84,309.43 L 0.24,741.7" data-line="1.0"  stroke-width="45.0"/>
    <path d="M 921.59,486.68 L 914.96,303.26" data-line="2.0"  stroke-width="45.0"/>
    <path d="M 12.39,26.04 Q 15.74000004880989,21.509999948570982 19.97,17.38" data-line="4.0"  stroke-width="45.0"/>
    <circle cx="806.2945577964072" cy="638.8733270280468" r="127.01189367220508" data-line="11.0"  stroke-width="45.0"/>
    <path d="M 103.7,0.04 L 286.61,0.23" data-line="12.0"  stroke-width="45.0"/>
    <path d="M 793.07,241.94 L 109.34,242.44" data-line="14.0"  stroke-width="45.0"/>
    <path d="M 109.21052886633407,241.50239604068537 A 145.96916307598158,145.96916307598158 0 0,0 4.389385658051822,310.37026356005595" data-line="15.0"  stroke-width="45.0"/>
    <path d="M 921.32,196.9 L 921.58,272.52" data-line="17.0"  stroke-width="45.0"/>
    <path d="M 108.33,816.96 L 570.78,816.95" data-line="17.0"  stroke-width="45.0"/>
    <path d="M 405.0914403521115,84.77748855318248 A 128.64439142873158,128.64439142873158 0 0,0 506.9006691768211,121.14685133838177" data-line="18.0"  stroke-width="45.0"/>
    <path d="M 506.94,121.58 L 845.29,121.71" data-line="19.0"  stroke-width="45.0"/>
    <path d="M 624.08,1023.78 L 982.64,1023.9" data-line="20.0"  stroke-width="45.0"/>
    <path d="M 1023.98,981.02 L 1023.75,937.76" data-line="23.0"  stroke-width="45.0"/>
  </g>
</svg>