<svg xmlns="http://www.w3.org/2000/svg" width="1024" height="1024" viewBox="-51.5 -51.5 1127.0 1127.0">
  <g fill="none" stroke="black" stroke-width="45" stroke-linecap="round" stroke-linejoin="round">
    <path d="M 748.183,208.923 C 740.233,179.717 734.208,161.761 725.963,141.8 C 717.089,124.48 706.308,107.015 693.324,89.652 C 680.577,75.342 665.929,61.374 650.569,49.024 C 632.869,37.186 613.673,26.844 593.9,18.475 C 575.828,12.603 553.26,7.469 532.068,4.805 C 510.875,4.0 489.462,4.951 471.554,7.487 C 449.622,12.431 429.942,18.669 409.985,26.925 C 389.84,37.583 372.174,49.241 356.885,61.556 C 342.869,75.012 328.743,91.224 315.94,109.066 C 305.95,125.842 297.073,143.741 289.048,163.619 Q 282.58,183.376 275.661,208.991" data-line="nan"  stroke-width="45.0"/>
    <path d="M 933.547,910.927 C 933.962,939.207 932.893,949.195 930.648,959.165 C 927.241,969.332 922.486,979.677 915.582,990.105 C 906.618,999.712 901.626,1003.822 891.095,1010.515 C 880.761,1014.986 870.739,1017.775 850.743,1019.881 L 810.822,1019.985" data-line="nan"  stroke-width="45.0"/>
    <path d="M 826.65,439.149 Q 811.222,437.429 751.243,437.295" data-line="nan"  stroke-width="45.0"/>
    <path d="M 219.592,437.025 C 209.011,437.436 197.943,440.593 191.702,444.486 C 184.778,452.102 181.979,457.698 179.684,466.21 L 179.162,498.407" data-line="nan"  stroke-width="45.0"/>
    <path d="M 179.418,875.558 L 179.568,911.046" data-line="nan"  stroke-width="45.0"/>
    <path d="M 845.117,474.021 C 843.769,461.412 840.534,453.782 836.398,447.951 L 826.65,439.149" data-line="nan"  stroke-width="45.0"/>
    <path d="M 366.185,797.211 C 434.294,797.063 439.646,796.371 446.528,794.16 C 453.476,789.804 461.15,780.794 463.941,771.871 C 464.587,764.067 464.611,724.091 464.098,716.251 C 461.776,707.941 456.211,699.949 449.882,695.188 C 446.158,693.427 438.796,691.578 392.661,691.054 C 387.449,690.505 382.066,688.795 376.85,685.667 C 370.441,678.845 366.859,670.899 365.736,663.164" data-line="nan"  stroke-width="45.0"/>
    <path d="M 365.778,573.377 C 367.394,565.521 371.976,557.399 375.889,553.288 C 380.532,549.941 389.901,546.226 399.355,545.221 L 474.821,545.218" data-line="nan"  stroke-width="45.0"/>
    <path d="M 551.23,797.185 C 627.811,796.979 638.423,794.54 643.815,791.64 C 648.759,787.442 652.615,782.423 655.202,776.938 C 656.592,771.493 657.392,761.075 657.419,736.084" data-line="nan"  stroke-width="45.0"/>
    <path d="M 657.237,576.17 C 655.562,565.734 653.249,560.505 649.734,555.536 C 645.048,551.248 639.875,548.03 634.458,545.986 C 629.346,544.901 619.369,544.312 552.895,544.545" data-line="nan"  stroke-width="45.0"/>
    <path d="M 181.651,1019.985 C 156.753,1018.662 146.801,1016.517 136.6,1012.931 C 121.767,1004.36 116.784,1000.258 107.696,990.615 C 98.154,975.204 94.197,965.295 91.535,955.402 Q 89.165,935.953 89.068,911.489" data-line="nan"  stroke-width="45.0"/>
    <path d="M 123.28473638918291,489.39399494095153 A 172.33159431756872,172.33159431756872 0 0,1 275.6273642287587,209.29946003967467" data-line="1.0"  stroke-width="45.0"/>
    <path d="M 903.5583415873733,486.4301114182495 A 172.69711193993703,172.69711193993703 0 0,0 748.2507275787248,209.5581673714596" data-line="2.0"  stroke-width="45.0"/>
    <path d="M 933.547,910.927 L 89.068,911.489" data-line="6.0"  stroke-width="45.0"/>
    <path d="M 751.243,437.295 L 219.592,437.025" data-line="7.0"  stroke-width="45.0"/>
    <path d="M 179.162,498.407 L 179.418,875.558" data-line="9.0"  stroke-width="45.0"/>
    <path d="M 845.337,910.973 L 845.117,474.021" data-line="11.0"  stroke-width="45.0"/>
    <path d="M 365.736,663.164 L 365.778,573.377" data-line="14.0"  stroke-width="45.0"/>
    <path d="M 657.419,736.084 L 657.237,576.17" data-line="17.0"  stroke-width="45.0"/>
    <path d="M 810.822,1019.985 L 181.651,1019.985" data-line="17.0"  stroke-width="45.0"/>
  </g>
</svg>