<svg xmlns="http://www.w3.org/2000/svg" width="1024" height="1024" viewBox="-51.5 -51.5 1127.0 1127.0">
  <g fill="none" stroke="black" stroke-width="45" stroke-linecap="round" stroke-linejoin="round">
    <path d="M 512.883,619.442 C 528.742,616.972 542.243,612.353 553.965,605.423 C 563.249,596.751 570.714,585.634 574.544,574.158 C 575.554,567.238 575.531,560.346 572.572,546.943 C 569.575,540.516 563.492,532.373 557.361,526.496 C 549.649,521.464 532.558,514.599 489.887,503.584 C 479.268,499.144 469.545,493.105 461.533,485.814 C 455.201,476.616 452.032,468.076 450.863,456.814 C 452.737,445.564 458.126,433.253 464.676,424.695 C 472.864,417.389 481.716,411.939 494.668,407.007 Q 511.935,404.424 519.814,404.861" data-line="nan"  stroke-width="45.0"/>
    <path d="M 696.815,629.285 C 684.181,647.702 670.93,663.463 655.126,679.015 C 639.13,692.021 621.443,703.891 602.774,713.97 C 581.594,722.769 559.115,729.325 538.96,732.938 C 516.71,734.641 494.477,733.996 474.63,731.404 C 454.618,726.784 434.218,719.878 414.599,710.926 C 394.815,699.316 377.534,686.595 359.681,670.371 C 344.566,653.358 332.312,636.526 320.707,616.895 C 312.141,598.611 304.572,577.509 299.039,555.185 C 295.852,533.148 294.812,511.002 295.862,489.995 C 298.896,468.963 304.27,447.29 312.075,425.533 C 321.466,405.715 332.011,388.02 345.12,370.117 C 359.07,354.498 374.992,339.844 392.477,326.667 C 411.439,315.168 429.475,306.519 451.799,298.445 C 469.576,293.879 488.546,290.77 510.184,289.304 C 529.944,289.984 551.149,292.864 569.161,297.072 C 591.757,304.722 611.82,314.013 629.395,324.368 C 645.131,335.638 661.199,349.634 675.91,365.236 C 689.559,382.92 700.387,400.11 710.557,420.077 C 718.114,439.281 724.247,460.755 728.211,483.96 C 729.769,505.085 729.298,527.332 726.709,549.375 C 722.493,569.161 716.086,589.666 708.084,608.577 L 696.815,629.285" data-line="nan"  stroke-width="45.0"/>
    <path d="M 976.333,193.514 C 989.56,195.824 998.514,200.046 1007.038,206.897 C 1010.723,211.09 1015.994,219.851 1018.706,228.779 Q 1019.58,237.665 1019.732,308.66" data-line="nan"  stroke-width="45.0"/>
    <path d="M 1019.916,783.477 C 1019.111,792.429 1016.521,801.472 1012.413,809.42 L 1006.647,818.184" data-line="nan"  stroke-width="45.0"/>
    <path d="M 1000.501,821.997 L 62.3,830.676" data-line="0.0"  stroke-width="45.0"/>
    <path d="M 1000.501,821.997 L 1006.647,818.184" data-line="1.0"  stroke-width="45.0"/>
    <path d="M 511.924,376.504 L 511.935,404.424" data-line="3.0"  stroke-width="45.0"/>
    <path d="M 455.5286564087823,597.2482410608567 A 84.23361473040444,84.23361473040444 0 0,0 505.8699059154201,619.8497511865068" data-line="5.0"  stroke-width="45.0"/>
    <path d="M 512.924,643.15 L 512.906,622.081" data-line="6.0"  stroke-width="45.0"/>
    <path d="M 519.8113474297617,404.927431442377 A 70.80311665108627,70.80311665108627 0 0,1 567.1314513437312,425.68855326868163" data-line="7.0"  stroke-width="45.0"/>
    <path d="M 818.626,610.151 L 944.079,610.301" data-line="11.0"  stroke-width="45.0"/>
    <path d="M 62.28718895650321,830.5749097182404 A 51.49012034631791,51.49012034631791 0 0,1 6.913811831083656,763.3677530251156" data-line="12.0"  stroke-width="45.0"/>
    <path d="M 72.655,193.284 L 976.333,193.514" data-line="12.0"  stroke-width="45.0"/>
    <path d="M 5.086,762.765 L 4.0,248.014" data-line="13.0"  stroke-width="45.0"/>
    <path d="M 4.0,248.014 C -3.8813319951128324,212.0644772222188 42.72818310611355,183.19690840240247 72.655,193.284" data-line="14.0"  stroke-width="45.0"/>
    <path d="M 1019.732,308.66 L 1019.916,783.477" data-line="14.0"  stroke-width="45.0"/>
  </g>
</svg>